PathFileType	4	(X/Y/Z)	C:/Users/beibeiliu/ov580/test_trc\sequence.14_training_dense_right.trc
DataRate	CameraRate	NumFrames	NumMarkers	Units	OrigDataRate	OrigDataStartFrame	OrigNumFrames
120	120	12	19	mm	120	96	383
Frame#	Time	ThumbCMC			ThumbMCP			ThumbIP			ThumbTip			IndexMCP			IndexPIP			IndexTip			MiddleMCP			MiddlePIP			MiddleTip			RingMCP			RingPIP			RingTip			PinkyMCP			PinkyPIP			PinkyTip			BackHand1			BackHand2			BackHand3	
		X0	Y0	Z0	X1	Y1	Z1	X2	Y2	Z2	X3	Y3	Z3	X4	Y4	Z4	X5	Y5	Z5	X6	Y6	Z6	X7	Y7	Z7	X8	Y8	Z8	X9	Y9	Z9	X10	Y10	Z10	X11	Y11	Z11	X12	Y12	Z12	X13	Y13	Z13	X14	Y14	Z14	X15	Y15	Z15	X16	Y16	Z16	X17	Y17	Z17	X18	Y18	Z18	
95	0.791667	182.744	3.70371	-8.0955	170.274	-26.305	-1.79587	175.183	-55.0673	-7.2824	196.182	-66.2653	-8.29187	180.835	-42.9602	-43.4361	182.242	-50.6284	-16.4295	186.752	-21.9984	-18.6844	203.222	-51.1042	-46.7692	193.878	-67.9074	-21.4114	199.244	-42.151	-2.36542	214.799	-52.8737	-32.9584	207.09	-53.7791	-7.52924	209.35	-25.8261	-2.63697	227.932	-47.6211	-21.2944	217.702	-40.1304	0.687868	216.389	-16.6942	-2.0238	229.669	-5.10466	-38.6021	233.852	16.4721	-22.5983	207.99	10.8795	-34.8611	
96	0.8	181.594	5.1559	-5.55127	174.11	-25.8158	1.05239	170.884	-48.1514	1.53189	184.276	-70.3249	-0.823232	172.36	-41.9949	-37.7001	171.792	-48.8235	-11.7859	186.902	-21.8217	-12.1884	189.419	-54.4337	-36.8447	190.141	-59.2171	-8.96152	194.716	-29.085	-4.38195	209.782	-53.3482	-26.8942	201.974	-46.4235	0.165026	203.912	-19.5208	-4.54445	226.048	-50.0392	-17.2643	211.137	-37.2769	1.39923	213.373	-14.5611	1.22261	225.245	-7.31522	-36.8059	230.517	14.1715	-24.262	205.613	14.0513	-31.5671	
97	0.808333	182.343	7.79195	-2.32147	172.843	-19.9041	5.29209	162.451	-41.9692	9.01155	171.579	-66.5844	5.07878	168.002	-38.9484	-35.2859	166.798	-45.7047	-9.02101	181.524	-20.2689	-7.11025	180.006	-51.6305	-30.7603	179.225	-50.9308	-3.21246	192.195	-20.6915	-8.76709	198.55	-55.0998	-20.9234	197.31	-47.673	2.73281	205.512	-20.295	-0.587692	214.904	-49.6967	-15.8372	210.423	-36.1279	6.60324	213.783	-11.3243	0.789266	223.007	-13.5008	-37.6231	231.998	10.3899	-26.6214	203.611	12.1517	-32.3289	
98	0.816667	185.596	13.6237	-0.051552	171.113	-12.3231	11.5039	161.313	-34.2935	11.5809	156.988	-60.4233	12.2377	162.042	-34.1259	-33.6233	159.499	-44.1658	-8.01278	174.319	-17.3637	0.721231	174.57	-49.1532	-28.428	174.108	-46.0256	1.35173	186.135	-19.8405	-4.23183	192.245	-53.0333	-22.2149	187.638	-48.4692	3.32344	198.095	-23.2086	3.70318	211.314	-53.7005	-14.0634	199.208	-37.6214	6.31947	207.096	-15.7208	1.71548	218.358	-13.208	-36.0175	234.807	7.31662	-25.1536	201.836	10.9881	-32.9049	
99	0.825	186.81	16.0461	-2.58242	170.868	-7.49121	10.9714	154.512	-27.8092	13.6149	145.701	-49.8048	16.972	154.711	-25.9139	-32.3543	147.123	-37.1805	-9.21176	168.98	-18.7548	6.16176	164.731	-43.4426	-28.215	163.344	-45.6056	-0.145032	180.501	-18.4695	0.192523	182.162	-52.4978	-20.7031	179.437	-48.7193	5.9619	192.716	-25.8633	9.97388	200.613	-56.5074	-11.4485	194.718	-43.6162	9.91286	198.635	-17.8433	7.56338	215.55	-19.4256	-35.7964	236.123	0.418048	-26.7927	204.855	10.0594	-31.9231	
100	0.833333	190.766	18.2339	-4.09302	167.475	0.973099	11.8586	152.557	-15.7817	17.5953	142.882	-38.1677	17.5751	153.129	-22.8895	-32.5997	141.353	-30.8081	-6.81037	159.948	-19.7603	10.2884	161.876	-39.8728	-27.6695	156.346	-42.3166	1.13804	175.279	-19.2678	6.53117	176.631	-50.1966	-21.6883	166.55	-47.1902	5.48946	182.097	-23.9509	16.8989	193.804	-54.6152	-13.5208	180.885	-47.1592	6.33124	188.562	-22.6857	14.1099	212.54	-18.4648	-34.3429	234.752	-5.17965	-26.7689	207.209	8.57083	-34.7713	
101	0.841667	188.826	19.9003	-5.40502	168.443	2.46685	10.1981	147.198	-10.1137	17.607	136.694	-23.8281	23.807	146.286	-14.8763	-31.6438	135.852	-22.2799	-7.87282	157.847	-12.9628	12.9429	154.996	-36.1054	-27.1325	146.6	-36.8649	-1.06096	170.612	-15.0056	11.1494	167.395	-44.6542	-20.4415	158.932	-43.5423	5.80218	169.101	-24.543	22.9484	187.263	-51.5296	-13.3704	173.795	-45.0989	7.85371	174.782	-23.6657	19.5599	213.092	-20.5518	-32.4666	232.559	-5.4565	-24.8955	208.039	5.82619	-34.7342	
102	0.85	194.3	19.8658	-6.1496	169.334	9.6745	11.5534	147.068	-2.3625	18.8848	137.539	-16.0284	24.3659	148.763	-10.0766	-32.7716	134.933	-17.4756	-8.89199	155.119	-8.41521	12.7589	153.796	-30.4057	-28.7719	143.066	-32.6098	0.774146	168.689	-15.0008	16.0385	166.832	-42.0859	-19.3181	153.866	-39.1946	5.22267	160.989	-23.5326	25.7694	179.7	-50.468	-10.2499	169.464	-43.5812	8.30084	168.581	-25.4656	22.4246	206.69	-22.2517	-35.6479	234.212	-9.32036	-26.2958	209.662	5.15258	-34.8267	
103	0.858333	196.962	24.834	-5.48371	172.102	13.4341	10.4958	151.318	4.08765	16.783	131.865	-10.4999	23.0921	147.329	-7.5671	-31.7742	134.972	-7.93447	-6.02895	156.337	0.638169	12.7371	153.115	-27.0916	-27.9053	139.182	-24.2358	-0.48311	159.18	-10.6278	18.0751	160.777	-37.2722	-18.0985	151.794	-35.0708	5.09143	158.396	-21.2985	26.4292	176.302	-49.1267	-8.24399	165.02	-40.6888	6.90751	163.003	-22.7554	22.5074	207.549	-24.2881	-34.9674	232.694	-10.7374	-27.049	210.063	9.22185	-35.4288	
104	0.866667	202.206	22.4871	-6.53203	171.345	20.1943	10.0557	151.344	9.92889	14.9755	135.373	-1.29117	21.59	148.935	3.91066	-34.4523	134.424	1.08553	-7.28558	156.874	1.81986	11.1858	148.031	-17.4539	-29.8001	137.181	-19.8888	-2.49373	157.332	-8.87349	19.3818	159.387	-33.7962	-18.2045	147.579	-25.6356	5.77647	158.599	-16.0755	27.7789	174.311	-45.4773	-10.7083	162.949	-35.699	8.52734	162.897	-12.2402	22.299	209.639	-22.3239	-34.0344	233.822	-14.0143	-24.2428	213.536	4.6053	-33.0227	
105	0.875	203.013	24.9999	-9.74691	174.1	24.8488	8.29789	150.416	18.9574	14.9689	133.548	4.79753	20.5249	148.821	7.95941	-35.2423	136.311	8.273	-11.046	155.691	9.39781	9.28028	149.017	-13.6684	-30.6225	135.089	-12.6237	-6.86425	155.243	-1.1906	17.6207	154.783	-26.0079	-18.2138	145.798	-17.2577	4.89277	153.957	-7.37348	23.6147	169.848	-40.6272	-9.94107	159.095	-25.5896	8.67884	164.113	-7.65505	19.9519	205.271	-23.1042	-33.7441	231.714	-14.3613	-25.5524	211.706	6.3811	-35.4291	
106	0.883333	205.786	29.2985	-11.5583	177.627	29.8524	5.93484	153.223	23.6055	12.5109	138.479	12.5602	20.2613	151.393	8.70975	-36.0133	138.088	11.078	-14.2082	159.223	13.3992	9.14294	148.355	-11.5675	-30.2355	134.979	-5.42469	-4.71129	158.608	5.51715	17.7459	154.004	-21.966	-19.2203	145.066	-13.0581	2.45992	153.779	0.227558	21.031	169.084	-38.3125	-8.16478	159.579	-21.7425	12.1345	166.3	-5.2944	21.8798	204.89	-28.2644	-33.4285	232.226	-21.6099	-23.7806	213.056	2.72247	-38.0686	
